<svg id="Steering_Wheel" data-name="Steering Wheel" xmlns="http://www.w3.org/2000/svg" width="107.914" height="107.914" viewBox="0 0 107.914 107.914">
  <defs>
    <style>
      .cls-1 {
        fill: #032d60;
      }
    </style>
  </defs>
  <path id="Path_31694" data-name="Path 31694" class="cls-1" d="M57.957,111.914a53.957,53.957,0,1,1,53.957-53.957,53.957,53.957,0,0,1-53.957,53.957Zm0-104.06a50.1,50.1,0,1,0,50.1,50.1,50.1,50.1,0,0,0-50.1-50.1Z" transform="translate(-4 -4)"/>
  <path id="Path_31695" data-name="Path 31695" class="cls-1" d="M91.082,44.687H74.941a1.927,1.927,0,0,1-1.542-.771L69.93,39.291a5.812,5.812,0,0,0-4.625-2.312H38.327A5.809,5.809,0,0,0,33.7,39.291l-3.469,4.625a1.927,1.927,0,0,1-1.542.771H12.551A1.927,1.927,0,0,1,10.679,42.3a42.346,42.346,0,0,1,82.275,0,1.927,1.927,0,0,1-1.872,2.385ZM75.9,40.833H88.546a38.491,38.491,0,0,0-73.459,0H27.728l2.891-3.854a9.68,9.68,0,0,1,7.708-3.854H65.306a9.682,9.682,0,0,1,7.708,3.854Z" transform="translate(2.141 1.562)"/>
  <path id="Path_31696" data-name="Path 31696" class="cls-1" d="M44.465,71.8a1.927,1.927,0,0,1-.366-.035A42.344,42.344,0,0,1,10.258,36.2,1.927,1.927,0,0,1,12.166,34h1.467a32.8,32.8,0,0,1,32.76,32.76v3.109A1.927,1.927,0,0,1,44.465,71.8ZM14.456,37.865a38.5,38.5,0,0,0,28.082,29.6v-.7A28.941,28.941,0,0,0,14.456,37.865Z" transform="translate(1.784 23.811)"/>
  <path id="Path_31697" data-name="Path 31697" class="cls-1" d="M36.927,71.8A1.926,1.926,0,0,1,35,69.869V66.76A32.8,32.8,0,0,1,67.76,34h1.468a1.928,1.928,0,0,1,1.908,2.2,42.348,42.348,0,0,1-33.842,35.56,1.907,1.907,0,0,1-.366.035Zm30.01-33.93A28.942,28.942,0,0,0,38.854,66.76v.7a38.5,38.5,0,0,0,28.083-29.6Z" transform="translate(24.738 23.811)"/>
  <path id="Path_31698" data-name="Path 31698" class="cls-1" d="M37.562,51.124A11.562,11.562,0,1,1,49.124,39.562,11.562,11.562,0,0,1,37.562,51.124Zm0-19.27a7.708,7.708,0,1,0,7.708,7.708A7.708,7.708,0,0,0,37.562,31.854Z" transform="translate(16.395 18.249)"/>
</svg>
