<svg id="signal" xmlns="http://www.w3.org/2000/svg" width="57.304" height="105.643" viewBox="0 0 57.304 105.643">
  <defs>
    <style>
      .cls-1 {
        fill: #032d60;
      }
    </style>
  </defs>
  <g id="Group_944" data-name="Group 944" transform="translate(3.933 13.293)">
    <g id="Group_943" data-name="Group 943">
      <path id="Path_31699" data-name="Path 31699" class="cls-1" d="M185.554,154.118,177.2,125.65v-.005l-2.98-10.158v0L170.1,101.447l0-.008L163.549,79.1a7.575,7.575,0,1,0-5.261,0l-13.653,46.541v.005l-8.351,28.467a2.073,2.073,0,1,0,3.979,1.167l1.27-4.328,19.388-12.806,19.388,12.806,1.27,4.328a2.073,2.073,0,1,0,3.978-1.167ZM157.489,72a3.429,3.429,0,1,1,3.429,3.429A3.433,3.433,0,0,1,157.489,72Zm3.429,12.867,4.434,15.117h-8.869Zm-5.651,19.263h11.3l2.9,9.9H152.364Zm-11.929,40.662,4.486-15.292,9.332,6.164Zm5.707-19.454,2.1-7.164h19.542l2.1,7.164-11.873,7.842Zm15.634,10.327,9.332-6.164,4.486,15.292Z" transform="translate(-136.198 -64.426)"/>
    </g>
  </g>
  <g id="Group_946" data-name="Group 946" transform="translate(10.578 7.474)">
    <g id="Group_945" data-name="Group 945">
      <path id="Path_31700" data-name="Path 31700" class="cls-1" d="M176.623,39.76a2.073,2.073,0,1,0-2.932-2.932,18.105,18.105,0,0,0,0,25.574,2.073,2.073,0,0,0,2.932-2.932A13.953,13.953,0,0,1,176.623,39.76Z" transform="translate(-168.403 -36.221)"/>
    </g>
  </g>
  <g id="Group_948" data-name="Group 948" transform="translate(37.901 7.474)">
    <g id="Group_947" data-name="Group 947" transform="translate(0)">
      <path id="Path_31701" data-name="Path 31701" class="cls-1" d="M304.365,36.829a2.073,2.073,0,0,0-2.932,2.932,13.954,13.954,0,0,1,0,19.711,2.073,2.073,0,0,0,2.932,2.932A18.1,18.1,0,0,0,304.365,36.829Z" transform="translate(-300.826 -36.222)"/>
    </g>
  </g>
  <g id="Group_950" data-name="Group 950" transform="translate(0 0)">
    <g id="Group_949" data-name="Group 949">
      <path id="Path_31702" data-name="Path 31702" class="cls-1" d="M128.461,3.539A2.073,2.073,0,1,0,125.529.607a28.654,28.654,0,0,0,0,40.522,2.073,2.073,0,0,0,2.932-2.932A24.534,24.534,0,0,1,128.461,3.539Z" transform="translate(-117.137 0)"/>
    </g>
  </g>
  <g id="Group_952" data-name="Group 952" transform="translate(45.375 4.87)">
    <g id="Group_951" data-name="Group 951">
      <path id="Path_31703" data-name="Path 31703" class="cls-1" d="M344.738,24.587a2.073,2.073,0,1,0-3.53,2.174,24.411,24.411,0,0,1-3.553,30.167,2.073,2.073,0,0,0,2.932,2.932,28.664,28.664,0,0,0,4.152-35.273Z" transform="translate(-337.047 -23.6)"/>
    </g>
  </g>
  <g id="Group_954" data-name="Group 954" transform="translate(45.445)">
    <g id="Group_953" data-name="Group 953" transform="translate(0)">
      <path id="Path_31704" data-name="Path 31704" class="cls-1" d="M339.392,0c-2.668,0-2.672,4.146,0,4.146S342.064,0,339.392,0Z" transform="translate(-337.39)"/>
    </g>
  </g>
</svg>
