<svg id="outline" xmlns="http://www.w3.org/2000/svg" width="98.603" height="109.555" viewBox="0 0 98.603 109.555">
  <defs>
    <style>
      .cls-1 {
        fill: #032d60;
      }
    </style>
  </defs>
  <path id="Path_31714" data-name="Path 31714" class="cls-1" d="M138.588,74.429a7.312,7.312,0,0,0-7.3-7.3V52.549s0-.1,0-.126a1.824,1.824,0,0,0-.127-.583l-3.521-8.8V36.085a1.826,1.826,0,0,0-1.826-1.826H103.9a1.826,1.826,0,0,0-1.826,1.826v6.952l-.166.415-.885-1.107a11.9,11.9,0,0,1-2.6-7.413V26.956a1.826,1.826,0,0,0,1.826-1.826V20.108A4.113,4.113,0,0,0,96.136,16H86.093a4.113,4.113,0,0,0-4.108,4.108V25.13a1.826,1.826,0,0,0,1.826,1.826v7.977a11.907,11.907,0,0,1-2.6,7.414l-1.9,2.378a12.832,12.832,0,0,0-2.771,7.157L73.02,44.441A22.1,22.1,0,0,0,56.263,32.022a5.311,5.311,0,0,0-5.316,2.511,22.154,22.154,0,0,0-3.013,8.859,7.3,7.3,0,0,0-3.412,13.625L53,61.913l2.466,5.213H47.292A7.3,7.3,0,0,0,45.467,81.5v34.924a9.14,9.14,0,0,0,9.13,9.13h69.385a9.14,9.14,0,0,0,9.13-9.13V81.5A7.309,7.309,0,0,0,138.588,74.429Zm-36.518-7.3V54.344h18.259V67.126Zm3.062-21.911H123.11l-2.191,5.478H102.941Zm18.849,7.655,1.826-4.565h0l1.826,4.565V67.126h-3.652ZM105.722,37.911h18.259v3.652H105.722Zm-20.085-17.8a.456.456,0,0,1,.456-.456H96.136a.456.456,0,0,1,.456.456v3.2H85.637Zm-3.476,26.9,1.9-2.377a15.569,15.569,0,0,0,3.4-9.7V26.956h7.3v7.977a15.568,15.568,0,0,0,3.4,9.694l1.9,2.378c.094.118.181.24.269.362l-1.775,4.438,0,.008-.011.027a1.78,1.78,0,0,0-.13.678V67.126H94.766V58A1.826,1.826,0,0,0,92.94,56.17H80.159V52.71a9.162,9.162,0,0,1,2-5.7ZM118.5,83.559a1.828,1.828,0,0,1-1.826,1.826H61.9a1.826,1.826,0,1,1,0-3.652h54.778A1.828,1.828,0,0,1,118.5,83.559ZM80.927,61.169l-.636-1.347H91.115V67.05ZM54.076,36.416a1.659,1.659,0,0,1,1.413-.8,1.676,1.676,0,0,1,.242.017A18.446,18.446,0,0,1,69.719,46l5.653,11.96-8.064-4.656a1.826,1.826,0,0,0-1.717-3.218l-2.119,1-3.847-2.221,4.405-2.082a1.826,1.826,0,1,0-1.561-3.3l-6.6,3.122c-.029.014-.056.03-.084.046L51.827,44.37c-.1-.058-.2-.114-.306-.167A18.491,18.491,0,0,1,54.076,36.416ZM44.648,51.638A3.65,3.65,0,0,1,50,47.529L62.417,54.7l.013.007L89.854,70.539l.037.022,1.223.706a3.652,3.652,0,1,1-3.652,6.325L69.743,67.361l-.033-.019L46.349,53.855a3.626,3.626,0,0,1-1.7-2.217ZM58.559,65.121l3.472,2H59.507ZM43.641,74.429a3.652,3.652,0,0,1,3.652-3.652H68.356l12.65,7.3H47.292A3.656,3.656,0,0,1,43.641,74.429Zm85.818,42a5.484,5.484,0,0,1-5.478,5.478H54.6a5.484,5.484,0,0,1-5.478-5.478V81.733h7.618a5.476,5.476,0,0,0,5.164,7.3h54.778a5.476,5.476,0,0,0,5.164-7.3h7.618Zm4.41-39.415a3.637,3.637,0,0,1-2.584,1.071H95.614a7.256,7.256,0,0,0,.73-5.542,7.339,7.339,0,0,0-.729-1.762h35.67a3.652,3.652,0,0,1,2.584,6.233Z" transform="translate(-39.985 -16)"/>
  <path id="Path_31715" data-name="Path 31715" class="cls-1" d="M172.255,416H117.478a5.478,5.478,0,0,0,0,10.956h54.778a5.478,5.478,0,0,0,0-10.956Zm0,7.3H117.478a1.826,1.826,0,1,1,0-3.652h54.778a1.826,1.826,0,1,1,0,3.652Z" transform="translate(-91.651 -324.704)"/>
  <path id="Path_31716" data-name="Path 31716" class="cls-1" d="M172.255,352H117.478a5.478,5.478,0,0,0,0,10.956h54.778a5.478,5.478,0,1,0,0-10.955Zm0,7.3H117.478a1.826,1.826,0,0,1,0-3.652h54.778a1.826,1.826,0,1,1,0,3.652Z" transform="translate(-91.651 -275.311)"/>
</svg>
