<svg id="mortarboard" xmlns="http://www.w3.org/2000/svg" width="144.886" height="118.343" viewBox="0 0 144.886 118.343">
  <defs>
    <style>
      .cls-1 {
        fill: #032d60;
      }
    </style>
  </defs>
  <path id="Path_31730" data-name="Path 31730" class="cls-1" d="M139.369,72.765l-58.793-25.2a20.751,20.751,0,0,0-16.276,0L5.521,72.764a9.105,9.105,0,0,0,0,16.739l6.948,2.978a2.174,2.174,0,0,0-.011.218v32.881a6.787,6.787,0,0,0-2.9,10.953,7.217,7.217,0,0,0-2.134,4.52L5.755,159.364a4.481,4.481,0,0,0,4.463,4.887h8.811a4.481,4.481,0,0,0,4.463-4.887l-1.665-18.312a7.217,7.217,0,0,0-2.134-4.52,6.787,6.787,0,0,0-2.9-10.953V94.334l11.864,5.085a2.168,2.168,0,0,0-.011.218v16.555c0,6.909,4.731,13.3,13.321,18,8.176,4.471,19,6.933,30.477,6.933s22.3-2.462,30.477-6.933c8.59-4.7,13.321-11.089,13.321-18V99.636a2.158,2.158,0,0,0-.011-.217L139.366,89.5a9.106,9.106,0,0,0,0-16.739Zm-120.234,87.1a.135.135,0,0,1-.107.047H10.217a.145.145,0,0,1-.144-.158l1.665-18.312a2.9,2.9,0,0,1,5.77,0l1.665,18.312A.135.135,0,0,1,19.135,159.867Zm-4.512-25.394a2.457,2.457,0,1,1,2.457-2.457A2.46,2.46,0,0,1,14.623,134.473Zm97.282-27.533c0,5.607-4.615,11.081-12.661,15.019a2.168,2.168,0,1,0,1.907,3.895,33,33,0,0,0,10.588-7.8c-.813,4.572-4.61,8.9-10.9,12.335-7.55,4.128-17.634,6.4-28.4,6.4s-20.847-2.273-28.4-6.4c-6.266-3.426-10.059-7.731-10.891-12.285a31.67,31.67,0,0,0,8.81,6.839c8.176,4.471,19,6.933,30.477,6.933a77.63,77.63,0,0,0,9.518-.581,2.168,2.168,0,1,0-.534-4.3,73.238,73.238,0,0,1-8.984.548c-10.763,0-20.847-2.273-28.4-6.4-7.136-3.9-11.065-8.942-11.065-14.193v-5.668L64.31,114.7a20.751,20.751,0,0,0,16.276,0l31.319-13.423v5.667Zm25.752-21.422L78.877,110.71a16.4,16.4,0,0,1-12.859,0L21.1,91.461,62.257,84.3c1.851,2.191,5.624,3.626,10.186,3.626,6.51,0,11.419-2.921,11.419-6.794S78.953,74.34,72.443,74.34c-5.913,0-10.5,2.409-11.3,5.753L14.252,88.249a2.166,2.166,0,0,0-.4.109l-6.63-2.842a4.768,4.768,0,0,1,0-8.767l58.78-25.192a16.4,16.4,0,0,1,12.859,0l58.793,25.2a4.769,4.769,0,0,1,0,8.768Zm-72.3-4.384c0-.632,2.435-2.457,7.083-2.457s7.083,1.826,7.083,2.457-2.435,2.457-7.083,2.457S65.36,81.766,65.36,81.134Z" transform="translate(0 -45.908)"/>
  <path id="Path_31731" data-name="Path 31731" class="cls-1" d="M301.246,323.318a2.178,2.178,0,0,0,.49-.056c1.636-.378,3.248-.817,4.791-1.305a2.168,2.168,0,0,0-1.308-4.135c-1.434.454-2.934.862-4.459,1.214a2.169,2.169,0,0,0,.486,4.282Z" transform="translate(-212.615 -239.139)"/>
</svg>
