<svg id="renewable-energy" xmlns="http://www.w3.org/2000/svg" width="98.759" height="115.242" viewBox="0 0 98.759 115.242">
  <defs>
    <style>
      .cls-1 {
        fill: #032d60;
      }
    </style>
  </defs>
  <g id="Group_956" data-name="Group 956" transform="translate(90.34 47.691)">
    <g id="Group_955" data-name="Group 955">
      <path id="Path_31717" data-name="Path 31717" class="cls-1" d="M444.713,211.885h-5.042a1.688,1.688,0,0,0,0,3.376h5.042a1.688,1.688,0,1,0,0-3.376Z" transform="translate(-437.983 -211.885)"/>
    </g>
  </g>
  <g id="Group_958" data-name="Group 958" transform="translate(0 47.691)">
    <g id="Group_957" data-name="Group 957">
      <path id="Path_31718" data-name="Path 31718" class="cls-1" d="M43.346,211.885H38.3a1.688,1.688,0,0,0,0,3.376h5.042a1.688,1.688,0,0,0,0-3.376Z" transform="translate(-36.615 -211.885)"/>
    </g>
  </g>
  <g id="Group_960" data-name="Group 960" transform="translate(84.626 23.846)">
    <g id="Group_959" data-name="Group 959">
      <path id="Path_31719" data-name="Path 31719" class="cls-1" d="M420.113,106.787a1.689,1.689,0,0,0-2.306-.618l-4.367,2.521a1.688,1.688,0,1,0,1.688,2.924l4.367-2.521A1.688,1.688,0,0,0,420.113,106.787Z" transform="translate(-412.596 -105.942)"/>
    </g>
  </g>
  <g id="Group_962" data-name="Group 962" transform="translate(6.389 69.016)">
    <g id="Group_961" data-name="Group 961">
      <path id="Path_31720" data-name="Path 31720" class="cls-1" d="M72.518,307.47a1.689,1.689,0,0,0-2.306-.618l-4.367,2.521a1.688,1.688,0,0,0,1.688,2.924l4.367-2.521A1.688,1.688,0,0,0,72.518,307.47Z" transform="translate(-65.001 -306.626)"/>
    </g>
  </g>
  <g id="Group_964" data-name="Group 964" transform="translate(69.014 6.389)">
    <g id="Group_963" data-name="Group 963">
      <path id="Path_31721" data-name="Path 31721" class="cls-1" d="M348.287,28.614a1.688,1.688,0,0,0-2.306.618L343.46,33.6a1.688,1.688,0,1,0,2.924,1.688L348.9,30.92A1.688,1.688,0,0,0,348.287,28.614Z" transform="translate(-343.231 -28.387)"/>
    </g>
  </g>
  <g id="Group_966" data-name="Group 966" transform="translate(23.843 84.626)">
    <g id="Group_965" data-name="Group 965">
      <path id="Path_31722" data-name="Path 31722" class="cls-1" d="M147.6,376.207a1.688,1.688,0,0,0-2.306.618l-2.521,4.367a1.688,1.688,0,1,0,2.924,1.688l2.521-4.367A1.688,1.688,0,0,0,147.6,376.207Z" transform="translate(-142.547 -375.981)"/>
    </g>
  </g>
  <g id="Group_968" data-name="Group 968" transform="translate(47.691)">
    <g id="Group_967" data-name="Group 967">
      <path id="Path_31723" data-name="Path 31723" class="cls-1" d="M250.188,0A1.688,1.688,0,0,0,248.5,1.688V6.73a1.688,1.688,0,0,0,3.376,0V1.688A1.688,1.688,0,0,0,250.188,0Z" transform="translate(-248.5)"/>
    </g>
  </g>
  <g id="Group_970" data-name="Group 970" transform="translate(23.846 6.389)">
    <g id="Group_969" data-name="Group 969">
      <path id="Path_31724" data-name="Path 31724" class="cls-1" d="M148.229,33.6l-2.521-4.367a1.688,1.688,0,1,0-2.924,1.688l2.521,4.367a1.688,1.688,0,0,0,2.924-1.688Z" transform="translate(-142.557 -28.387)"/>
    </g>
  </g>
  <g id="Group_972" data-name="Group 972" transform="translate(69.015 84.626)">
    <g id="Group_971" data-name="Group 971">
      <path id="Path_31725" data-name="Path 31725" class="cls-1" d="M348.912,381.192l-2.521-4.367a1.688,1.688,0,0,0-2.924,1.688l2.521,4.367a1.688,1.688,0,1,0,2.924-1.688Z" transform="translate(-343.24 -375.981)"/>
    </g>
  </g>
  <g id="Group_974" data-name="Group 974" transform="translate(6.389 23.845)">
    <g id="Group_973" data-name="Group 973">
      <path id="Path_31726" data-name="Path 31726" class="cls-1" d="M71.9,108.688l-4.367-2.522a1.688,1.688,0,0,0-1.688,2.924c4.342,2.424,4.421,2.748,5.209,2.748A1.69,1.69,0,0,0,71.9,108.688Z" transform="translate(-65.001 -105.94)"/>
    </g>
  </g>
  <g id="Group_976" data-name="Group 976" transform="translate(84.626 69.016)">
    <g id="Group_975" data-name="Group 975">
      <path id="Path_31727" data-name="Path 31727" class="cls-1" d="M419.5,309.373l-4.367-2.521a1.688,1.688,0,0,0-1.688,2.924l4.367,2.521a1.688,1.688,0,1,0,1.688-2.924Z" transform="translate(-412.596 -306.625)"/>
    </g>
  </g>
  <g id="Group_978" data-name="Group 978" transform="translate(10.975 10.974)">
    <g id="Group_977" data-name="Group 977">
      <path id="Path_31728" data-name="Path 31728" class="cls-1" d="M154.269,63.812a1.688,1.688,0,0,0-2.679,2.055,35.03,35.03,0,0,1-8.6,50.588,9.917,9.917,0,0,0-4.3,6.311h-4.4a1.688,1.688,0,1,0,0,3.376h4.2v2.347H109.063v-2.347h17.354a1.688,1.688,0,1,0,0-3.376H108.8a10.6,10.6,0,0,0-4.461-6.463A35.024,35.024,0,1,1,146.4,60.419a1.688,1.688,0,1,0,2.182-2.577,38.4,38.4,0,1,0-46.121,61.268,7.192,7.192,0,0,1,3.226,5.976v8.968a5.273,5.273,0,0,0,3.107,4.8v2.654a5.272,5.272,0,0,0,5.139,5.264l.688,1.729a7.135,7.135,0,0,0,6.664,4.521h4.646a7.634,7.634,0,0,0,7.129-4.836l.562-1.414a5.272,5.272,0,0,0,5.139-5.264v-2.654a5.273,5.273,0,0,0,3.107-4.8v-9.344a6.506,6.506,0,0,1,2.975-5.434,38.407,38.407,0,0,0,9.425-55.464Zm-28.338,85.836h-4.646a3.993,3.993,0,0,1-3.717-2.871h12.42A4.324,4.324,0,0,1,125.932,149.647Zm9.455-8.138h0A1.893,1.893,0,0,1,133.5,143.4H114.061a1.893,1.893,0,0,1-1.89-1.891V139.32h23.216Zm3.106-7.456a1.893,1.893,0,0,1-1.89,1.89H110.954a1.893,1.893,0,0,1-1.89-1.89v-2.189h29.429v2.189Z" transform="translate(-85.373 -48.757)"/>
    </g>
  </g>
  <g id="Group_980" data-name="Group 980" transform="translate(21.873 31.768)">
    <g id="Group_979" data-name="Group 979">
      <path id="Path_31729" data-name="Path 31729" class="cls-1" d="M188.029,145.236a5.143,5.143,0,0,0-4.812-4.061,22.826,22.826,0,0,0-12.568,3.122,1.688,1.688,0,1,0,1.67,2.935,19.5,19.5,0,0,1,10.706-2.686,1.789,1.789,0,0,1,1.714,1.447c1.385,6.023-.512,12.847-5.075,18.254-4.9,5.8-11.542,8.448-17.165,8.068a48.449,48.449,0,0,1,3.309-6.3,17.166,17.166,0,0,1,5.182-.6,1.688,1.688,0,0,0,.185-3.371,20.7,20.7,0,0,0-2.62.06,39.441,39.441,0,0,1,11.192-9.809,1.688,1.688,0,0,0-1.7-2.918,41.857,41.857,0,0,0-6.82,4.955,10.454,10.454,0,0,0-.242-1.245,1.688,1.688,0,0,0-3.255.9,8.663,8.663,0,0,1,.057,3.782,46.669,46.669,0,0,0-4.422,5.8,1.68,1.68,0,0,0-.2.317,51.062,51.062,0,0,0-2.709,4.821,21.962,21.962,0,0,1,5.428-16.084q.221-.263.449-.517a1.688,1.688,0,0,0-2.521-2.246q-.257.288-.508.585c-5.245,6.214-7.407,14.136-5.785,21.188a5.384,5.384,0,0,0,.845,1.9c-.547,1.449-1,2.829-1.375,4.109q-.3-.588-.643-1.2c1.265-2.679.072-9.789-5.516-14.646a16.29,16.29,0,0,0-13.895-4,3.862,3.862,0,0,0-3.1,3.57,17.13,17.13,0,0,0,19.827,17.189c1.444,2.677,1.745,3.977,2.041,4.445-.341,1.837-.443,2.971-.452,3.078a1.688,1.688,0,0,0,1.539,1.824c.049,0,.1.006.145.006a1.689,1.689,0,0,0,1.68-1.544,48.428,48.428,0,0,1,2.622-10.857c3.349.884,13.446-.122,21.012-9.087C187.489,160.21,189.651,152.289,188.029,145.236ZM141.867,166.83a25.952,25.952,0,0,1,9.872,8.615,13.237,13.237,0,0,1-9.8-3.419,12.911,12.911,0,0,1-4.739-10.413.516.516,0,0,1,.444-.511,12.908,12.908,0,0,1,10.971,3.243,13.769,13.769,0,0,1,4.5,7.311,28.722,28.722,0,0,0-9.764-7.861,1.688,1.688,0,1,0-1.479,3.035Z" transform="translate(-133.795 -141.142)"/>
    </g>
  </g>
</svg>
