<svg id="finance" xmlns="http://www.w3.org/2000/svg" width="115.013" height="106.173" viewBox="0 0 115.013 106.173">
  <defs>
    <style>
      .cls-1 {
        fill: #032d60;
      }
    </style>
  </defs>
  <path id="Path_31732" data-name="Path 31732" class="cls-1" d="M40.326,26.456a23.6,23.6,0,0,0-11.8,3.153,1.8,1.8,0,1,0,1.8,3.115,20.034,20.034,0,1,1-4.112,3.151,1.8,1.8,0,1,0-2.535-2.547,23.594,23.594,0,1,0,16.643-6.869Z" transform="translate(23.357 32.524)"/>
  <path id="Path_31733" data-name="Path 31733" class="cls-1" d="M33.666,52.7H29.154a2.655,2.655,0,0,1-2.66-2.652,1.8,1.8,0,0,0-3.594,0,6.254,6.254,0,0,0,6.247,6.247h.462v3.446a1.8,1.8,0,1,0,3.594,0V56.29h.458a6.247,6.247,0,0,0,0-12.493H29.154a2.655,2.655,0,0,1,0-5.307h4.512a2.655,2.655,0,0,1,2.652,2.652,1.8,1.8,0,1,0,3.594,0A6.254,6.254,0,0,0,33.666,34.9H33.2V31.447a1.8,1.8,0,0,0-3.594,0V34.9h-.455a6.248,6.248,0,1,0,0,12.5h4.512a2.652,2.652,0,0,1,0,5.3Z" transform="translate(31.971 36.983)"/>
  <path id="Path_31734" data-name="Path 31734" class="cls-1" d="M67.683,16.725a1.8,1.8,0,0,0-.958,3.462c4.862,1.351,5.957,2.875,5.957,3.287,0,1.5-7.033,5.017-20.666,5.017s-20.669-3.517-20.669-5.017,7.03-5.017,20.669-5.017a65.492,65.492,0,0,1,9.64.678,1.8,1.8,0,0,0,.53-3.558,69.74,69.74,0,0,0-10.169-.719c-11.686,0-24.263,2.7-24.263,8.612V37.451c0,5.916,12.577,8.612,24.263,8.612,7.854,0,16.1-1.224,20.666-3.822v2.2c0,1.5-7.033,5.017-20.666,5.017-1.565,0-3.089-.048-4.553-.144a1.816,1.816,0,0,0-1.917,1.677,1.795,1.795,0,0,0,1.677,1.917c1.545.1,3.148.153,4.792.153,7.854,0,16.1-1.224,20.666-3.834v2.2c0,1.5-7.033,5.032-20.666,5.032,0,0-.75.014-1.083,0a1.867,1.867,0,0,0-1.85,1.742,1.8,1.8,0,0,0,1.744,1.852h1.2c7.854,0,16.1-1.227,20.666-3.834v2.2c0,1.5-7.033,5.017-20.666,5.017a1.8,1.8,0,0,0,0,3.594c7.854,0,16.1-1.227,20.666-3.822v2.375c0,1.5-7.033,5.017-20.666,5.017H51.38a1.9,1.9,0,0,0-1.816,1.778A1.8,1.8,0,0,0,51.342,74.2h.683c11.667.007,24.244-2.688,24.244-8.6V23.475c0-1.989-1.49-4.773-8.585-6.75ZM52.008,32.086c7.854,0,16.1-1.224,20.666-3.822v2.2c0,1.5-7.033,5.032-20.666,5.032s-20.669-3.52-20.669-5.032v-2.2C35.908,30.862,44.16,32.086,52.008,32.086Zm0,10.387c-13.639,0-20.669-3.517-20.669-5.017v-2.2c4.569,2.6,12.81,3.834,20.669,3.834s16.1-1.224,20.666-3.834v2.2C72.674,38.956,65.641,42.473,52.008,42.473Z" transform="translate(38.745 16.332)"/>
  <path id="Path_31735" data-name="Path 31735" class="cls-1" d="M37.858,93.945c-.633.024-1.27.038-1.917.038-19.049,0-32.347-10.929-32.347-26.575,0-12.759,8.626-31.628,21.491-39.38.175-.108.321-.24.479-.359h14.69a1.8,1.8,0,0,0,0-3.594H27.831a5.391,5.391,0,0,0-.781-3.9c-6.074-9.409-7.255-13.643-7.035-14.741a.127.127,0,0,0,.077.017,28.034,28.034,0,0,1,7.962,1.212,27.78,27.78,0,0,0,7.7,1.2,36.224,36.224,0,0,0,8.729-1.289,32.529,32.529,0,0,1,6.908-1.121c-.065,1.354-1.407,5.353-6.048,13.274H31.628a1.8,1.8,0,0,0,0,3.594H43.758a5.353,5.353,0,0,0,.115,2.006,5.772,5.772,0,0,0,2.715,3.561A43.978,43.978,0,0,1,61.8,44.827a1.8,1.8,0,1,0,3.156-1.718A47.57,47.57,0,0,0,48.42,24.8a2.221,2.221,0,0,1-1.061-1.349,1.821,1.821,0,0,1,.218-1.416c9.019-15,7.562-17.58,6.949-18.69a3,3,0,0,0-2.712-1.5,34.288,34.288,0,0,0-8.147,1.224,32.927,32.927,0,0,1-7.907,1.2A24.44,24.44,0,0,1,28.978,3.18,31.885,31.885,0,0,0,20.1,1.848a3.414,3.414,0,0,0-3.2,1.737c-.6,1.109-2.209,4.057,7.138,18.534a1.819,1.819,0,0,1,.261,1.438,2.233,2.233,0,0,1-1.064,1.392C9.345,33.328,0,53.669,0,67.408c0,17.48,15.119,30.179,35.941,30.179q1.035,0,2.056-.043a1.8,1.8,0,0,0-.141-3.594Z" transform="translate(0 -1.841)"/>
</svg>
