<svg xmlns="http://www.w3.org/2000/svg" width="107.301" height="110.154" viewBox="0 0 107.301 110.154">
  <defs>
    <style>
      .cls-1 {
        fill: #032d60;
      }
    </style>
  </defs>
  <path id="government" class="cls-1" d="M68.073,56.033a7.492,7.492,0,1,0-7.492-7.492,7.5,7.5,0,0,0,7.492,7.492Zm0-11.431a3.939,3.939,0,1,1-3.939,3.939A3.943,3.943,0,0,1,68.073,44.6Zm53.64,71.586a21.328,21.328,0,0,0-14.225-17.909,11.681,11.681,0,0,0-.751-19.177v-13h4.6a3.743,3.743,0,0,0,3.739-3.739v-3.3a1.777,1.777,0,0,0-.883-1.536L69.85,31.731V26.277h15.7A1.777,1.777,0,0,0,87.018,23.5l-3.45-5.035,3.45-5.035a1.777,1.777,0,0,0-1.466-2.781H69.85V9.777a1.777,1.777,0,1,0-3.553,0V31.731l-44.348,25.8a1.777,1.777,0,0,0-.883,1.536v3.3A3.743,3.743,0,0,0,24.8,66.106h4.6v13a11.681,11.681,0,0,0-.751,19.176,21.329,21.329,0,0,0-14.225,17.909,1.776,1.776,0,0,0,1.766,1.966H119.947a1.777,1.777,0,0,0,1.767-1.965Zm-37.443-11.7a21.357,21.357,0,0,0-9.151-6.208A11.681,11.681,0,0,0,74.368,79.1v-13H94.148v13A11.681,11.681,0,0,0,93.4,98.286a21.412,21.412,0,0,0-9.134,6.2Zm-16.2-7.393h0a8.142,8.142,0,1,1,8.144-8.142,8.151,8.151,0,0,1-8.144,8.142h0Zm-16.2,7.393a21.414,21.414,0,0,0-9.134-6.2A11.681,11.681,0,0,0,42,79.1v-13H61.778v13a11.681,11.681,0,0,0-.751,19.176,21.355,21.355,0,0,0-9.152,6.208Zm16.2-27.231a11.678,11.678,0,0,0-2.742.328V66.106h5.484V77.584A11.671,11.671,0,0,0,68.073,77.256Zm32.369,19.838a8.142,8.142,0,1,1,8.142-8.142A8.151,8.151,0,0,1,100.443,97.094Zm2.742-19.51a11.631,11.631,0,0,0-5.484,0V66.106h5.483V77.584ZM68.073,34.808l38.643,22.48H29.43ZM82.181,14.2l-2.233,3.258a1.777,1.777,0,0,0,0,2.009l2.233,3.258H69.85V14.2ZM24.619,62.367V60.841h86.908v1.526a.19.19,0,0,1-.185.185H24.8A.19.19,0,0,1,24.619,62.367Zm8.343,3.739h5.484V77.584a11.631,11.631,0,0,0-5.484,0V66.106Zm-5.4,22.846a8.142,8.142,0,1,1,8.145,8.142h0A8.151,8.151,0,0,1,27.562,88.952Zm8.14,11.7h0a17.847,17.847,0,0,1,14.019,6.812,21.281,21.281,0,0,0-2.688,7.141H18.286A17.8,17.8,0,0,1,35.7,100.647ZM50.656,114.6a17.8,17.8,0,0,1,17.415-13.953h0A17.8,17.8,0,0,1,85.491,114.6Zm38.453,0a21.286,21.286,0,0,0-2.688-7.141A17.843,17.843,0,0,1,117.86,114.6Z" transform="translate(-14.422 -8)"/>
</svg>
