<svg id="Layer_x0020_1" xmlns="http://www.w3.org/2000/svg" width="110.813" height="100.615" viewBox="0 0 110.813 100.615">
  <defs>
    <style>
      .cls-1 {
        fill: #032d60;
        fill-rule: evenodd;
      }
    </style>
  </defs>
  <g id="_293629128" transform="translate(0 0)">
    <g id="Group_981" data-name="Group 981">
      <g id="_293625672" transform="translate(17.326 14)">
        <path id="Path_31736" data-name="Path 31736" class="cls-1" d="M290.888,393.441c-.827,0-1.336-.75-1.526-1.5l-5.279-62.687-8.65,21.828A1.711,1.711,0,0,1,274.1,352.1H255.526A1.607,1.607,0,0,1,254,350.467a1.546,1.546,0,0,1,1.526-1.569h17.617l10.494-26.875A1.7,1.7,0,0,1,285.291,321a1.5,1.5,0,0,1,1.208,1.5l5.088,58.73,7.886-39.222a1.533,1.533,0,0,1,1.4-1.364,1.472,1.472,0,0,1,1.463,1.16l3.434,15.143,3.943-10.573a1.666,1.666,0,0,1,1.4-1.023h18.062a1.6,1.6,0,0,1,1.463,1.637,1.582,1.582,0,0,1-1.463,1.569H312.067l-5.342,14.256a1.72,1.72,0,0,1-1.463,1.023,1.534,1.534,0,0,1-1.4-1.228l-2.989-13.165-8.65,42.632A1.473,1.473,0,0,1,290.888,393.441Z" transform="translate(-254 -321)"/>
      </g>
      <g id="_293627808">
        <path id="Path_31737" data-name="Path 31737" class="cls-1" d="M55.536,179.611a1.843,1.843,0,0,1-1.1-.455L9.548,134.208a32.149,32.149,0,0,1,0-45.728c12.666-12.731,32.217-12.6,45.858.13,13.705-12.731,33.257-12.861,45.923-.13a32.46,32.46,0,0,1,0,45.858L56.381,179.286C56.381,179.416,55.991,179.611,55.536,179.611ZM32.153,81.919a28.187,28.187,0,0,0-20.4,8.639,29.325,29.325,0,0,0,0,41.571l43.779,43.844L99.38,132.129a29.325,29.325,0,0,0,0-41.571c-11.887-11.887-30.269-11.432-42.675,1.1a1.529,1.529,0,0,1-2.143,0C48,85.1,40.077,81.919,32.153,81.919Z" transform="translate(0 -78.996)"/>
      </g>
    </g>
  </g>
</svg>
