<svg id="g5019" xmlns="http://www.w3.org/2000/svg" xmlns:xlink="http://www.w3.org/1999/xlink" width="122.37" height="122.37" viewBox="0 0 122.37 122.37">
  <defs>
    <style>
      .cls-1 {
        clip-path: url(#clip-path);
      }

      .cls-2, .cls-3 {
        fill: none;
        stroke: #032d60;
        stroke-linejoin: round;
        stroke-miterlimit: 10;
        stroke-width: 3px;
      }

      .cls-3 {
        stroke-linecap: round;
      }
    </style>
    <clipPath id="clip-path">
      <path id="path5025" d="M0-682.665H122.37V-560.3H0Z" transform="translate(0 682.665)"/>
    </clipPath>
  </defs>
  <g id="g5021" transform="translate(0 0)">
    <g id="g5023" class="cls-1">
      <g id="g5029" transform="translate(1.811 37.967)">
        <path id="path5031" class="cls-2" d="M-378.352-211.975v-9.974h-6.17a35.247,35.247,0,0,0-2.211-8.267l5.339-3.082-4.988-8.638-5.346,3.086a35.7,35.7,0,0,0-6.05-6.049l3.087-5.345-8.639-4.987-3.083,5.338a35.275,35.275,0,0,0-8.268-2.21v-6.169h-9.976v6.169a35.27,35.27,0,0,0-8.268,2.21l-3.083-5.338-8.639,4.987,3.087,5.345a35.709,35.709,0,0,0-6.05,6.049l-5.346-3.086-4.988,8.638,5.339,3.082a35.237,35.237,0,0,0-2.21,8.267h-6.17v9.974h6.17a35.241,35.241,0,0,0,2.21,8.267l-5.339,3.082,4.988,8.638,5.346-3.086a35.71,35.71,0,0,0,6.05,6.049l-3.087,5.345,8.639,4.987,3.083-5.338a35.249,35.249,0,0,0,8.268,2.21v6.169h9.976v-6.169a35.254,35.254,0,0,0,8.268-2.21l3.083,5.338,8.639-4.987-3.087-5.345a35.7,35.7,0,0,0,6.05-6.049l5.346,3.086,4.988-8.638-5.339-3.082a35.247,35.247,0,0,0,2.211-8.267Z" transform="translate(460.986 258.271)"/>
      </g>
      <g id="g5033" transform="translate(70.749 1.801)">
        <path id="path5035" class="cls-2" d="M0-140.671H4.616a20.922,20.922,0,0,0,1.8,4.327l-3.265,3.258,8.3,8.283,3.265-3.258a21.869,21.869,0,0,0,4.337,2.033v4.366H30.794v-4.605a21.052,21.052,0,0,0,4.337-1.794L38.4-124.8l8.3-8.283-3.265-3.258a20.948,20.948,0,0,0,1.8-4.327h4.616v-11.713H45.231a20.948,20.948,0,0,0-1.8-4.327L46.7-159.97l-8.3-8.283-3.265,3.257a21.048,21.048,0,0,0-4.337-1.794v-4.605H19.053v4.605a21.055,21.055,0,0,0-4.337,1.794l-3.265-3.257-8.3,8.283,3.265,3.258a20.922,20.922,0,0,0-1.8,4.327H0Z" transform="translate(0 171.394)"/>
      </g>
      <g id="g5037" transform="translate(83.154 14.177)">
        <path id="path5039" class="cls-3" d="M-30.269-6.755a12.489,12.489,0,0,1,5.908-1.475A12.5,12.5,0,0,1-11.843,4.259a12.5,12.5,0,0,1-12.519,12.49A12.5,12.5,0,0,1-36.88,4.259a12.415,12.415,0,0,1,1.312-5.572" transform="translate(36.88 8.231)"/>
      </g>
      <g id="g5041" transform="translate(19.277 55.43)">
        <path id="path5043" class="cls-3" d="M-8.582-151.688a23.769,23.769,0,0,1-1.874-9.282A23.849,23.849,0,0,1,13.4-184.817,23.849,23.849,0,0,1,37.246-160.97,23.849,23.849,0,0,1,13.4-137.124a23.8,23.8,0,0,1-18.247-8.489" transform="translate(10.456 184.817)"/>
      </g>
      <g id="g5045" transform="translate(26.9 63.051)">
        <path id="path5047" class="cls-3" d="M-127.869-22.8a16.17,16.17,0,0,1,4.529,11.245A16.227,16.227,0,0,1-139.568,4.666,16.226,16.226,0,0,1-155.8-11.559a16.226,16.226,0,0,1,16.228-16.225,16.227,16.227,0,0,1,4.846.736" transform="translate(155.796 27.784)"/>
      </g>
      <g id="g5049" transform="translate(95.579 61.239)">
        <path id="path5051" class="cls-3" d="M-100.207-50.1A10.942,10.942,0,0,1-111.15-39.154,10.942,10.942,0,0,1-122.093-50.1,10.942,10.942,0,0,1-111.15-61.036,10.942,10.942,0,0,1-100.207-50.1Z" transform="translate(122.093 61.036)"/>
      </g>
      <g id="g5053" transform="translate(106.521 58.107)">
        <path id="path5055" class="cls-3" d="M0-14.338v-3.131" transform="translate(0 17.469)"/>
      </g>
      <g id="g5057" transform="translate(106.521 83.12)">
        <path id="path5059" class="cls-3" d="M0-14.338v-3.131" transform="translate(0 17.469)"/>
      </g>
      <g id="g5061" transform="translate(117.464 72.18)">
        <path id="path5063" class="cls-3" d="M0,0H3.132"/>
      </g>
      <g id="g5065" transform="translate(92.447 72.18)">
        <path id="path5067" class="cls-3" d="M0,0H3.132"/>
      </g>
      <g id="g5069" transform="translate(114.259 62.229)">
        <path id="path5071" class="cls-3" d="M0-10.139l2.215-2.214" transform="translate(0 12.353)"/>
      </g>
      <g id="g5073" transform="translate(96.569 79.916)">
        <path id="path5075" class="cls-3" d="M0-10.138l2.215-2.214" transform="translate(0 12.352)"/>
      </g>
      <g id="g5077" transform="translate(114.259 79.916)">
        <path id="path5079" class="cls-3" d="M0,0,2.215,2.214"/>
      </g>
      <g id="g5081" transform="translate(96.569 62.229)">
        <path id="path5083" class="cls-3" d="M0,0,2.215,2.214"/>
      </g>
      <g id="g5085" transform="translate(102.373 68.032)">
        <path id="path5087" class="cls-3" d="M-37.985-18.99a4.148,4.148,0,0,1-4.148,4.147,4.148,4.148,0,0,1-4.148-4.147,4.148,4.148,0,0,1,4.148-4.147A4.148,4.148,0,0,1-37.985-18.99Z" transform="translate(46.281 23.137)"/>
      </g>
    </g>
  </g>
</svg>
