<svg id="video-production_1_" data-name="video-production (1)" xmlns="http://www.w3.org/2000/svg" width="115.241" height="110.635" viewBox="0 0 115.241 110.635">
  <defs>
    <style>
      .cls-1 {
        fill: #032d60;
      }
    </style>
  </defs>
  <path id="Path_31705" data-name="Path 31705" class="cls-1" d="M117.295,55.08a4.241,4.241,0,0,0-3.988-.4L98.022,60.96a16.917,16.917,0,0,1-4.987.338V53.529a8.205,8.205,0,0,0-4.321-7.2,23.629,23.629,0,0,0,7.712-17.512c-1.3-31.533-46.3-31.587-47.607,0A23.678,23.678,0,0,0,55.408,45.3H44.318A16.876,16.876,0,0,0,30.73,18.6C16.7,18.425,8.672,35.482,17.771,46.138a8.258,8.258,0,0,0-4.677,7.773h-5A4.1,4.1,0,0,0,4,58v8.385a4.1,4.1,0,0,0,4.093,4.093h5V94.023a8.241,8.241,0,0,0,8.232,8.231H32.783l-4.2,10.373a2.058,2.058,0,1,0,3.814,1.545l4.83-11.918H73.011l5.283,12.284a2.058,2.058,0,1,0,3.78-1.626l-4.584-10.658H84.8a8.241,8.241,0,0,0,8.231-8.232V86.294a16.47,16.47,0,0,1,5.028.355l15.244,6.269a4.359,4.359,0,0,0,5.933-4.082V58.756a4.411,4.411,0,0,0-1.946-3.676ZM13.095,66.372l-4.979.016-.023-8.362h5ZM52.936,28.819c1.081-26.114,38.3-26.088,39.375,0A19.564,19.564,0,0,1,83.39,45.3H61.858A19.563,19.563,0,0,1,52.936,28.819Zm-22.206-6.1A12.732,12.732,0,0,1,38.694,45.3H22.765A12.723,12.723,0,0,1,30.73,22.716ZM88.92,94.023A4.12,4.12,0,0,1,84.8,98.139s-53.694,0-63.478,0a4.12,4.12,0,0,1-4.116-4.116s.012-38.919,0-40.494a4.12,4.12,0,0,1,4.116-4.116H84a.152.152,0,0,0,.061,0H84.8a4.12,4.12,0,0,1,4.116,4.116s0,34.089,0,40.494Zm6.037-11.845H93.036V65.414h1.921Zm20.169,6.658c0,.152-.076.226-.253.274,0,0-15.6-6.37-15.8-6.438V64.923C99.255,64.86,115,58.5,115,58.5a.293.293,0,0,1,.123.257Z" transform="translate(-4 -5.149)"/>
  <path id="Path_31706" data-name="Path 31706" class="cls-1" d="M41.8,29.773a8.663,8.663,0,1,0-8.663-8.663A8.663,8.663,0,0,0,41.8,29.773Zm0-13.21a4.547,4.547,0,1,1-4.548,4.547A4.547,4.547,0,0,1,41.8,16.562Z" transform="translate(26.822 2.57)"/>
  <path id="Path_31707" data-name="Path 31707" class="cls-1" d="M20.364,29.811a6.569,6.569,0,1,0-6.569-6.569,6.568,6.568,0,0,0,6.569,6.569Zm0-9.021a2.453,2.453,0,1,1-2.453,2.453,2.453,2.453,0,0,1,2.453-2.453Z" transform="translate(6.362 7.042)"/>
  <path id="Path_31708" data-name="Path 31708" class="cls-1" d="M17.732,37.177H47.159a2.058,2.058,0,1,0,0-4.116H17.732a2.058,2.058,0,1,0,0,4.116Z" transform="translate(8.349 24.379)"/>
  <path id="Path_31709" data-name="Path 31709" class="cls-1" d="M70.2,41.073H17.732a2.058,2.058,0,1,0,0,4.116H70.2a2.058,2.058,0,1,0,0-4.116Z" transform="translate(8.349 32.853)"/>
  <path id="Path_31710" data-name="Path 31710" class="cls-1" d="M39.831,45.39h6.758A4.12,4.12,0,0,0,50.7,41.274V34.516A4.12,4.12,0,0,0,46.589,30.4H39.831a4.12,4.12,0,0,0-4.116,4.116v6.758a4.12,4.12,0,0,0,4.116,4.116Zm0-10.874h6.758l0,6.758H39.831Z" transform="translate(29.55 21.563)"/>
</svg>
