<svg id="globe" xmlns="http://www.w3.org/2000/svg" width="98.112" height="105.643" viewBox="0 0 98.112 105.643">
  <defs>
    <style>
      .cls-1 {
        fill: #032d60;
      }
    </style>
  </defs>
  <path id="Path_31711" data-name="Path 31711" class="cls-1" d="M79.155,20.616a1.889,1.889,0,0,0-1.875-1.679A7.909,7.909,0,0,0,71.225,21.6c-4.377,4.889-3.543,14.843-3.379,16.424v1.832c-6.543.306-8.128,2.319-10.749,6.451a50.71,50.71,0,0,1-3.745,5.305L43.4,58.426C42.232,59.336,32,67.488,32,73.771a50.384,50.384,0,0,0,1.34,11.66,18.1,18.1,0,0,1,.547,3.434v5.66a1.887,1.887,0,0,0,3.773,0v-5.66a20.647,20.647,0,0,0-.632-4.23,47.028,47.028,0,0,1-1.255-10.864c0-3.358,6.1-9.368,9.851-12.3l10.083-6.9a1.927,1.927,0,0,0,.389-.355,53.377,53.377,0,0,0,4.19-5.89c2.053-3.236,2.806-4.424,7.143-4.687A60.5,60.5,0,0,1,64.38,53.807c-1.219,1.175-6.092,5.894-9.228,9.237A1.887,1.887,0,0,0,57.9,65.626c3.462-3.694,9.305-9.307,9.364-9.364a1.9,1.9,0,0,0,.423-.6A67.754,67.754,0,0,0,71.6,42.01c.038-.228.025-3.672.026-4.089,0-2.741-.815-10.2,2.419-13.807a4.062,4.062,0,0,1,1.585-1.123L77.272,37.81c-.217,2.109-1.875,18.314-1.86,20.722-.3,1.036-3.775,4.241-6.317,6.583C62.657,71.05,54.643,78.439,54.643,85.089v9.434a1.887,1.887,0,0,0,3.773,0V85.089c0-5,7.653-12.051,13.239-17.2,5.075-4.679,7.515-7.026,7.515-9.215,0-2.051,1.355-15.622,1.877-20.679.034-.389.087.575-1.892-17.381Z" transform="translate(17.055 9.245)"/>
  <path id="Path_31712" data-name="Path 31712" class="cls-1" d="M7.9,20.616a1.889,1.889,0,0,1,1.875-1.679A7.909,7.909,0,0,1,15.83,21.6c4.377,4.889,3.543,14.843,3.379,16.424v1.832c6.543.306,8.128,2.319,10.749,6.451A50.712,50.712,0,0,0,33.7,51.611l9.952,6.815c1.168.909,11.4,9.062,11.4,15.345a50.385,50.385,0,0,1-1.34,11.66,18.1,18.1,0,0,0-.547,3.434v5.66a1.887,1.887,0,0,1-3.773,0v-5.66a20.647,20.647,0,0,1,.632-4.23,47.029,47.029,0,0,0,1.255-10.864c0-3.358-6.1-9.368-9.851-12.3l-10.083-6.9a1.928,1.928,0,0,1-.389-.355,53.377,53.377,0,0,1-4.19-5.89c-2.053-3.236-2.806-4.424-7.143-4.687a60.5,60.5,0,0,0,3.049,10.166c1.219,1.175,6.092,5.894,9.228,9.237a1.887,1.887,0,0,1-2.753,2.581c-3.462-3.694-9.305-9.307-9.364-9.364a1.9,1.9,0,0,1-.423-.6A67.754,67.754,0,0,1,15.458,42.01c-.038-.228-.025-3.672-.026-4.089,0-2.741.815-10.2-2.419-13.807a4.062,4.062,0,0,0-1.585-1.123L9.783,37.81c.217,2.109,1.875,18.314,1.86,20.722.3,1.036,3.775,4.241,6.317,6.583C24.4,71.05,32.412,78.439,32.412,85.089v9.434a1.887,1.887,0,0,1-3.773,0V85.089c0-5-7.653-12.051-13.239-17.2-5.072-4.677-7.511-7.024-7.511-9.213,0-2.051-1.355-15.622-1.877-20.679-.038-.391-.091.574,1.889-17.382Z" transform="translate(-6 9.245)"/>
  <path id="Path_31713" data-name="Path 31713" class="cls-1" d="M16,34.188A30.188,30.188,0,1,0,46.187,4,30.3,30.3,0,0,0,16,34.188ZM72.5,32.3h-9.39a50.413,50.413,0,0,0-1.623-11.32h7.534A26.164,26.164,0,0,1,72.5,32.3ZM69.027,47.395H61.494a50.414,50.414,0,0,0,1.623-11.32h9.39A26.215,26.215,0,0,1,69.027,47.395ZM19.869,36.074h9.39a50.414,50.414,0,0,0,1.623,11.32H23.348a26.139,26.139,0,0,1-3.479-11.32Zm13.16,0H44.3v11.32H34.827A46.145,46.145,0,0,1,33.029,36.074ZM44.3,51.168v9.119c-3.207-.966-6.079-4.319-8.128-9.119Zm3.773,9.119V51.168H56.2C54.152,55.968,51.281,59.321,48.073,60.287Zm0-12.892V36.074H59.345a46.146,46.146,0,0,1-1.8,11.32ZM59.345,32.3H48.073V20.981h9.473A46.146,46.146,0,0,1,59.345,32.3ZM48.073,17.207V8.089c3.207.966,6.079,4.319,8.128,9.119ZM44.3,8.089v9.119H36.172C38.221,12.407,41.092,9.055,44.3,8.089Zm0,12.892V32.3H33.029a46.146,46.146,0,0,1,1.8-11.32ZM29.257,32.3H19.869a26.19,26.19,0,0,1,3.479-11.32h7.534A50.411,50.411,0,0,0,29.257,32.3ZM25.984,51.168h6.083A28.706,28.706,0,0,0,36.1,58.592a26.537,26.537,0,0,1-10.12-7.424Zm30.286,7.424a28.618,28.618,0,0,0,4.038-7.424H66.39A26.537,26.537,0,0,1,56.269,58.592ZM66.39,17.207H60.307a28.706,28.706,0,0,0-4.038-7.424A26.537,26.537,0,0,1,66.39,17.207ZM36.1,9.783a28.653,28.653,0,0,0-4.039,7.424H25.982A26.558,26.558,0,0,1,36.1,9.783Z" transform="translate(2.866 -4)"/>
</svg>
